HIERARCHY
ROOT Hips
{
 OFFSET 0.000000 0.000000 0.000000
 CHANNELS 6 Xposition Yposition Zposition Yrotation Xrotation Zrotation
 JOINT Chest
 {
  OFFSET 0.000000 10.483295 0.018402
  CHANNELS 3 Yrotation Xrotation Zrotation
  JOINT Chest2
  {
   OFFSET 0.000000 12.196575 -0.033437
   CHANNELS 3 Yrotation Xrotation Zrotation
   JOINT Chest3
   {
    OFFSET 0.000000 11.021500 0.000000
    CHANNELS 3 Yrotation Xrotation Zrotation
    JOINT Chest4
    {
     OFFSET 0.000000 11.021400 0.000000
     CHANNELS 3 Yrotation Xrotation Zrotation
     JOINT Neck
     {
      OFFSET 0.000000 15.252000 0.000000
      CHANNELS 3 Yrotation Xrotation Zrotation
      JOINT Head
      {
       OFFSET 0.000000 10.245098 -0.079700
       CHANNELS 3 Yrotation Xrotation Zrotation
       End Site
       {
        OFFSET 0.000000 19.813991 -0.041600
       }
      }
     }
     JOINT RightCollar
     {
      OFFSET -3.058700 8.489100 0.000000
      CHANNELS 3 Yrotation Xrotation Zrotation
      JOINT RightShoulder
      {
       OFFSET -13.730400 0.000000 0.000000
       CHANNELS 3 Yrotation Xrotation Zrotation
       JOINT RightElbow
       {
        OFFSET -30.364119 -0.000000 0.000000
        CHANNELS 3 Yrotation Xrotation Zrotation
        JOINT RightWrist
        {
         OFFSET -24.952755 0.000000 0.004743
         CHANNELS 3 Yrotation Xrotation Zrotation
         End Site
         {
          OFFSET -18.738600 0.000000 0.000000
         }
        }
       }
      }
     }
     JOINT LeftCollar
     {
      OFFSET 3.058700 8.489100 0.000000
      CHANNELS 3 Yrotation Xrotation Zrotation
      JOINT LeftShoulder
      {
       OFFSET 13.730400 0.000000 0.000000
       CHANNELS 3 Yrotation Xrotation Zrotation
       JOINT LeftElbow
       {
        OFFSET 30.364119 -0.000000 0.000000
        CHANNELS 3 Yrotation Xrotation Zrotation
        JOINT LeftWrist
        {
         OFFSET 24.952755 -0.000000 0.004743
         CHANNELS 3 Yrotation Xrotation Zrotation
         End Site
         {
          OFFSET 18.738600 -0.000000 -0.000000
         }
        }
       }
      }
     }
    }
   }
  }
 }
 JOINT RightHip
 {
  OFFSET -8.366805 -0.090331 -0.009218
  CHANNELS 3 Yrotation Xrotation Zrotation
  JOINT RightKnee
  {
   OFFSET 0.000000 -46.515684 0.008890
   CHANNELS 3 Yrotation Xrotation Zrotation
   JOINT RightAnkle
   {
    OFFSET 0.000000 -42.864747 0.048728
    CHANNELS 3 Yrotation Xrotation Zrotation
    JOINT RightToe
    {
     OFFSET 0.000000 -10.045100 15.254100
     CHANNELS 3 Yrotation Xrotation Zrotation
     End Site
     {
      OFFSET 0.000000 -1.537700 6.138800
     }
    }
   }
  }
 }
 JOINT LeftHip
 {
  OFFSET 8.366805 -0.090331 -0.009218
  CHANNELS 3 Yrotation Xrotation Zrotation
  JOINT LeftKnee
  {
   OFFSET 0.000000 -46.515684 0.008890
   CHANNELS 3 Yrotation Xrotation Zrotation
   JOINT LeftAnkle
   {
    OFFSET 0.000000 -42.864747 0.048728
    CHANNELS 3 Yrotation Xrotation Zrotation
    JOINT LeftToe
    {
     OFFSET 0.000000 -10.045100 15.254100
     CHANNELS 3 Yrotation Xrotation Zrotation
     End Site
     {
      OFFSET 0.000000 -1.537700 6.138800
     }
    }
   }
  }
 }
}
MOTION
Frames: 15
Frame Time: 0.004167
226.506773 100.077950 -211.459007 -9.943009 -14.331537 1.181236 8.355819 10.008227 2.031860 3.637168 4.480215 0.709377 3.637240 4.480148 0.709386 2.721249 3.364622 0.505042 -4.550619 20.934557 -0.691360 -8.060435 2.764019 0.078379 -5.201587 -4.487666 2.982886 5.785924 3.260413 70.391085 56.446810 4.036211 15.102326 -10.260688 12.315161 -28.918784 -1.815728 -3.355217 -2.566716 2.916595 8.400824 -79.994254 -12.536020 6.765561 -2.601036 4.904226 21.504461 20.117080 6.433770 23.211065 3.049253 8.136334 8.209697 -2.551679 -4.672983 -11.656370 -1.980272 0.027024 -0.530834 0.087782 28.498447 -11.402138 0.187357 -1.641155 7.646711 2.552635 6.371770 2.693496 -5.028257 0.166324 2.923839 1.035453
226.472741 99.994654 -210.923191 -10.029966 -14.339638 1.076547 8.367668 9.996654 2.030598 3.646749 4.476512 0.707592 3.646710 4.476548 0.707561 2.728578 3.361747 0.503606 -4.538428 20.924821 -0.687684 -8.039121 2.745700 0.082280 -5.162036 -4.476752 2.995773 5.811406 3.263846 70.384001 56.435486 4.079251 15.105220 -10.274742 12.316372 -28.903330 -1.764271 -3.344437 -2.541970 3.004039 8.481489 -79.995013 -12.633673 6.733589 -2.648330 4.902855 21.505122 20.135191 6.260808 23.559520 3.074459 8.302735 8.169086 -2.594212 -4.584456 -11.792422 -1.980338 0.028609 -0.557986 0.070723 28.566693 -11.212251 0.443708 -1.796032 6.311274 2.076030 6.400560 2.503592 -5.192081 0.161093 2.920425 1.120490
226.435710 99.907980 -210.386859 -10.117745 -14.341100 0.970336 8.376499 9.975400 2.026644 3.657005 4.472503 0.705104 3.656952 4.472633 0.705136 2.736203 3.358688 0.501805 -4.525672 20.915195 -0.682352 -8.017890 2.727392 0.088649 -5.124548 -4.463314 3.007972 5.848794 3.271600 70.386216 56.404568 4.119658 15.096041 -10.289136 12.318671 -28.889363 -1.715624 -3.335323 -2.519194 3.091496 8.559652 -79.991424 -12.738418 6.698196 -2.700552 4.902218 21.502616 20.154053 6.082468 23.898523 3.098281 8.480841 8.136565 -2.643906 -4.456169 -11.927663 -1.981002 0.032130 -0.581613 0.052928 28.615145 -11.049107 0.710607 -1.911037 5.046647 1.590119 6.431246 2.317670 -5.379904 0.139939 2.901111 1.202122
226.397051 99.819400 -209.846796 -10.215466 -14.354725 0.865165 8.395264 9.964320 2.025398 3.667146 4.468369 0.702087 3.667092 4.468355 0.702172 2.743820 3.355605 0.499471 -4.512537 20.906065 -0.676155 -7.996394 2.710317 0.096727 -5.089113 -4.446229 3.019492 5.893225 3.282166 70.396421 56.357096 4.162239 15.077965 -10.307046 12.319581 -28.873928 -1.668704 -3.326162 -2.499130 3.176980 8.635449 -79.983023 -12.848164 6.659943 -2.758401 4.900406 21.496922 20.171357 5.912858 24.241684 3.126428 8.661854 8.124246 -2.699704 -4.343812 -12.065132 -1.965612 0.032846 -0.606343 0.031145 28.653697 -10.888932 0.999193 -1.987857 3.845424 1.103300 6.486638 2.131013 -5.602434 0.129387 2.874143 1.291930
226.357939 99.728279 -209.305828 -10.312475 -14.366942 0.760917 8.412430 9.951089 2.022137 3.677659 4.463395 0.698518 3.677465 4.463363 0.698419 2.751712 3.351917 0.496803 -4.499656 20.897434 -0.668777 -7.975119 2.694361 0.106816 -5.054708 -4.426121 3.031308 5.940821 3.296766 70.412828 56.292794 4.206426 15.053527 -10.326731 12.320170 -28.857733 -1.623587 -3.318437 -2.482002 3.255191 8.711310 -79.970531 -12.962437 6.614257 -2.819867 4.896305 21.489908 20.186870 5.744274 24.573539 3.154973 8.844685 8.134856 -2.762206 -4.255568 -12.205889 -1.931442 0.033148 -0.631483 0.007316 28.679769 -10.755987 1.287752 -2.042828 2.725738 0.625070 6.570258 1.952907 -5.854839 0.114212 2.832192 1.383098
226.320363 99.634420 -208.762169 -10.397970 -14.372599 0.661135 8.421923 9.937021 2.013420 3.686951 4.456279 0.694510 3.686992 4.456218 0.694591 2.758727 3.346415 0.493736 -4.486568 20.889748 -0.660628 -7.954090 2.679723 0.117945 -5.019427 -4.402136 3.041288 5.987048 3.315412 70.435273 56.212714 4.254780 15.025254 -10.350817 12.321053 -28.839811 -1.578207 -3.312974 -2.468304 3.324871 8.789600 -79.956075 -13.081585 6.564947 -2.885953 4.891184 21.481400 20.201815 5.572503 24.887564 3.178442 9.016192 8.175983 -2.831516 -4.161484 -12.354736 -1.882310 0.032311 -0.657178 -0.018866 28.685400 -10.651180 1.558434 -2.128419 1.683957 0.168125 6.712247 1.794036 -6.151679 0.092464 2.773344 1.480709
226.282394 99.537807 -208.220963 -10.485881 -14.367730 0.557277 8.433104 9.914584 2.006828 3.696037 4.446624 0.689056 3.696168 4.446664 0.689078 2.765653 3.339400 0.489641 -4.473631 20.882132 -0.650948 -7.933485 2.665880 0.132300 -4.984433 -4.378816 3.052907 6.038977 3.340832 70.462914 56.116721 4.300428 14.988030 -10.375012 12.323602 -28.820106 -1.535550 -3.307890 -2.458478 3.393561 8.862724 -79.933509 -13.204671 6.511822 -2.957238 4.884488 21.471657 20.213977 5.425748 25.177267 3.215002 9.192372 8.240185 -2.907085 -4.055315 -12.504509 -1.829718 0.033116 -0.680363 -0.043578 28.687179 -10.590179 1.806312 -2.173814 0.733707 -0.228164 6.931628 1.639262 -6.493231 0.067232 2.707684 1.585406
226.247711 99.439355 -207.681800 -10.572588 -14.354785 0.454281 8.446123 9.888732 1.998477 3.704419 4.434087 0.682466 3.704542 4.434108 0.682532 2.772005 3.329839 0.484655 -4.460998 20.875421 -0.639813 -7.914161 2.653563 0.149105 -4.950583 -4.354912 3.065832 6.094273 3.374803 70.495256 56.006539 4.344726 14.945383 -10.401856 12.327133 -28.799599 -1.495758 -3.301410 -2.452846 3.460099 8.933691 -79.904097 -13.332803 6.457848 -3.032699 4.876036 21.460753 20.223716 5.301332 25.442382 3.260611 9.369008 8.334883 -2.987062 -3.983114 -12.657706 -1.756354 0.025498 -1.970611 0.277416 28.699628 -10.581966 2.015186 -2.019019 -0.071616 -0.537888 6.899563 1.464494 -6.982704 0.034784 2.631651 1.732237
226.217763 99.339672 -207.145319 -10.655484 -14.333737 0.353400 8.459399 9.860574 1.987036 3.711510 4.418675 0.674491 3.711524 4.418681 0.674596 2.777338 3.318284 0.478921 -4.448866 20.868469 -0.627170 -7.896190 2.641242 0.169047 -4.918300 -4.332037 3.081180 6.152177 3.416045 70.530455 55.881160 4.388899 14.897640 -10.430228 12.331302 -28.775704 -1.458274 -3.296434 -2.450678 3.517521 9.003250 -79.867914 -13.463654 6.396491 -3.112163 4.866056 21.448925 20.231598 5.207943 25.680565 3.317260 9.538356 8.463404 -3.069651 -3.973078 -12.814464 -1.652766 0.012888 -3.054282 0.511188 28.712008 -10.619694 2.186698 -1.711980 -0.716312 -0.769444 6.700398 1.233814 -7.612771 -0.004315 2.561591 1.914571
226.193494 99.239094 -206.609266 -10.727941 -14.307221 0.258712 8.467576 9.833630 1.969743 3.717110 4.401129 0.665894 3.717108 4.401149 0.665815 2.781669 3.304957 0.472482 -4.437480 20.861763 -0.613570 -7.879420 2.628826 0.190768 -4.888105 -4.306653 3.097152 6.209634 3.462089 70.568573 55.742610 4.437374 14.848008 -10.462632 12.334717 -28.746373 -1.421652 -3.291803 -2.453801 3.572392 9.068639 -79.823212 -13.596166 6.337512 -3.197913 4.855508 21.437331 20.237430 5.148555 25.892227 3.378827 9.692521 8.633299 -3.148851 -3.968372 -12.977300 -1.537458 -0.001520 -3.979186 0.675401 28.708353 -10.688424 2.323271 -1.360511 -1.201154 -0.933793 6.441382 0.926828 -8.362786 -0.047467 2.505995 2.119444
226.173938 99.138420 -206.076962 -10.799343 -14.273228 0.163996 8.475992 9.800732 1.951017 3.721537 4.383008 0.655626 3.721559 4.383024 0.655595 2.785179 3.291487 0.464759 -4.426399 20.853788 -0.598388 -7.863910 2.614596 0.215335 -4.864347 -4.284120 3.115031 6.274829 3.511589 70.611316 55.588803 4.485866 14.793110 -10.493355 12.338763 -28.715020 -1.382238 -3.291008 -2.459422 3.621763 9.129182 -79.772321 -13.731708 6.276017 -3.286553 4.845156 21.427537 20.240284 5.139575 26.077167 3.458443 9.845154 8.831487 -3.224398 -3.972329 -13.135770 -1.416874 -0.014891 -4.779210 0.782795 28.701384 -10.795703 2.426103 -1.011022 -1.516315 -1.024474 6.164078 0.526909 -9.182315 -0.089160 2.459101 2.304291
226.162226 99.038447 -205.547714 -10.864490 -14.236620 0.077947 8.480767 9.766823 1.925035 3.725046 4.365291 0.644101 3.725080 4.365315 0.644005 2.787833 3.278172 0.456210 -4.416388 20.845169 -0.582355 -7.850770 2.599127 0.242238 -4.850406 -4.261394 3.132310 6.347233 3.561873 70.659326 55.420521 4.538412 14.734097 -10.523706 12.342781 -28.680122 -1.342406 -3.288987 -2.469181 3.662254 9.180407 -79.715598 -13.867511 6.211574 -3.378290 4.833722 21.418199 20.241424 5.178238 26.238062 3.546897 9.980665 9.064538 -3.293185 -4.009120 -13.293796 -1.279089 -0.030012 -5.483693 0.840727 28.676193 -10.937515 2.487850 -0.691248 -1.647354 -1.046863 5.890040 0.029913 -10.004168 -0.123862 2.375517 2.395092
226.159597 98.939212 -205.021394 -10.920793 -14.195578 0.000938 8.480348 9.731186 1.891203 3.727633 4.348209 0.631220 3.727807 4.348126 0.631181 2.789955 3.265134 0.446730 -4.408070 20.835396 -0.565557 -7.841043 2.581631 0.270877 -4.847572 -4.238741 3.149775 6.425329 3.613602 70.713174 55.238835 4.597561 14.671035 -10.553565 12.346264 -28.635288 -1.303073 -3.287773 -2.481528 3.692414 9.223932 -79.655350 -14.004188 6.143466 -3.472390 4.821566 21.409870 20.240920 5.261780 26.373449 3.641775 10.088464 9.331109 -3.354331 -4.072069 -13.450817 -1.125190 -0.046119 -6.115142 0.858796 28.615667 -11.116520 2.505179 -0.427795 -1.599140 -1.001116 5.650531 -0.542761 -10.756516 -0.145387 2.253375 2.365924
226.167299 98.840298 -204.495854 -10.962444 -14.154770 -0.065047 8.471852 9.698550 1.848626 3.729580 4.331906 0.618052 3.729575 4.332067 0.618082 2.791393 3.252871 0.436790 -4.401683 20.823595 -0.548640 -7.834640 2.560629 0.300073 -4.856390 -4.212963 3.165758 6.503423 3.665107 70.773235 55.046414 4.668455 14.607587 -10.588085 12.351393 -28.582675 -1.264032 -3.285658 -2.497523 3.714969 9.257797 -79.592177 -14.140317 6.078725 -3.568303 4.807961 21.403436 20.237630 5.384646 26.485582 3.739662 10.151114 9.639418 -3.407336 -4.134054 -13.610109 -0.961717 -0.062619 -6.695102 0.845106 28.506411 -11.327354 2.475365 -0.210595 -1.385196 -0.885767 5.436966 -1.150509 -11.376854 -0.147914 2.085185 2.204818
226.181934 98.742382 -203.974372 -11.003032 -14.113495 -0.135733 8.466037 9.661679 1.812856 3.732605 4.318034 0.603735 3.732564 4.317970 0.603826 2.793853 3.242320 0.426177 -4.398959 20.807289 -0.531175 -7.835338 2.531307 0.332047 -4.878384 -4.191292 3.182747 6.584201 3.719756 70.840306 54.842964 4.746021 14.538041 -10.620112 12.356082 -28.528455 -1.232647 -3.285132 -2.518531 3.733665 9.282802 -79.523707 -14.278296 6.013463 -3.663041 4.793094 21.397141 20.232345 5.556311 26.578172 3.860472 10.182520 9.972772 -3.458571 -4.200513 -13.782405 -0.786184 -0.082258 -7.214776 0.804347 28.392667 -11.579561 2.409545 -0.036318 -1.027257 -0.702091 5.238001 -1.760614 -11.806045 -0.125358 1.881104 1.909401
